<svg width="1240" height="68" viewBox="0 0 1240 68" fill="none" xmlns="http://www.w3.org/2000/svg">
<path d="M20.0745 34.6485L8.84014 46.1362V62.2561H0V0H8.84014V34.8338L42.359 0H52.4883L26.1521 27.9782L54.33 62.2561H44.0165L20.0745 34.6485Z" fill="#FF6060"/>
<path d="M118.789 57.2534L122.289 50.5831C126.34 53.3624 132.602 55.4005 138.68 55.4005C146.599 55.4005 149.73 52.9918 149.73 48.9155C149.73 38.3542 120.078 47.4332 120.078 28.7193C120.078 20.1962 127.629 14.6376 139.6 14.6376C145.678 14.6376 152.676 16.3052 156.728 18.8992L153.045 25.5695C148.809 22.7902 144.205 21.8638 139.6 21.8638C132.234 21.8638 128.55 24.6431 128.55 28.3488C128.55 39.4659 158.202 30.3869 158.202 48.7302C158.202 57.2534 150.466 62.6267 137.943 62.6267C130.392 62.812 122.657 60.4033 118.789 57.2534Z" fill="#FF6060"/>
<path d="M210.322 33.7221V62.2561H202.218V55.9564C199.456 60.218 194.115 62.6267 186.748 62.6267C176.066 62.6267 169.436 56.8828 169.436 48.7302C169.436 41.1335 174.224 35.0191 188.221 35.0191H201.666V33.3515C201.666 26.1253 197.43 22.049 189.142 22.049C183.617 22.049 177.908 24.0872 174.224 27.0518L170.725 20.5668C175.514 16.6758 182.512 14.4523 190.063 14.4523C203.139 14.6376 210.322 20.9373 210.322 33.7221ZM201.85 47.8038V41.1335H188.774C180.302 41.1335 177.908 44.4687 177.908 48.3597C177.908 52.9918 181.775 55.9564 188.221 55.9564C194.667 56.1417 199.824 53.3624 201.85 47.8038Z" fill="#FF6060"/>
<path d="M91.5323 49.842V62.4414L96.8732 59.2916V46.6921L91.5323 49.842Z" fill="#FF6060"/>
<path d="M106.266 34.4632L84.3497 21.6785L72.1945 14.6376L60.2234 35.5749L60.4076 55.2153L82.1396 68L84.3497 66.703V48.1744L94.1106 30.9428L104.056 36.6866V55.2153L106.266 53.9183V34.4632Z" fill="#FF6060"/>
<path d="M993.033 43H995.553L987.921 26.2H985.545L977.937 43H980.409L982.257 38.8H991.185L993.033 43ZM983.097 36.88L986.721 28.648L990.345 36.88H983.097ZM1003.15 43.144C1005.43 43.144 1007.33 42.184 1008.33 40.408L1006.58 39.304C1005.77 40.552 1004.52 41.128 1003.13 41.128C1000.63 41.128 998.758 39.4 998.758 36.64C998.758 33.928 1000.63 32.176 1003.13 32.176C1004.52 32.176 1005.77 32.752 1006.58 34L1008.33 32.872C1007.33 31.096 1005.43 30.16 1003.15 30.16C999.238 30.16 996.43 32.848 996.43 36.64C996.43 40.432 999.238 43.144 1003.15 43.144ZM1016.67 43.144C1018.95 43.144 1020.85 42.184 1021.86 40.408L1020.11 39.304C1019.29 40.552 1018.04 41.128 1016.65 41.128C1014.15 41.128 1012.28 39.4 1012.28 36.64C1012.28 33.928 1014.15 32.176 1016.65 32.176C1018.04 32.176 1019.29 32.752 1020.11 34L1021.86 32.872C1020.85 31.096 1018.95 30.16 1016.67 30.16C1012.76 30.16 1009.95 32.848 1009.95 36.64C1009.95 40.432 1012.76 43.144 1016.67 43.144ZM1034.39 30.28V36.856C1034.39 39.592 1032.86 41.08 1030.46 41.08C1028.27 41.08 1027.02 39.832 1027.02 37.336V30.28H1024.72V37.6C1024.72 41.344 1026.9 43.144 1030.19 43.144C1031.99 43.144 1033.58 42.4 1034.51 41.08V43H1036.7V30.28H1034.39ZM1052.58 36.712C1052.58 32.8 1049.96 30.16 1046.29 30.16C1042.62 30.16 1039.91 32.872 1039.91 36.64C1039.91 40.432 1042.64 43.144 1046.75 43.144C1048.86 43.144 1050.61 42.424 1051.76 41.08L1050.49 39.592C1049.55 40.624 1048.31 41.128 1046.82 41.128C1044.3 41.128 1042.5 39.64 1042.21 37.408H1052.53C1052.55 37.192 1052.58 36.904 1052.58 36.712ZM1046.29 32.104C1048.52 32.104 1050.13 33.616 1050.37 35.752H1042.21C1042.45 33.592 1044.08 32.104 1046.29 32.104ZM1056.93 27.832C1057.84 27.832 1058.49 27.16 1058.49 26.296C1058.49 25.48 1057.82 24.832 1056.93 24.832C1056.04 24.832 1055.37 25.504 1055.37 26.344C1055.37 27.184 1056.04 27.832 1056.93 27.832ZM1055.78 43H1058.08V30.28H1055.78V43ZM1062.48 43H1064.78V25.192H1062.48V43Z" fill="#FF6060"/>
<path d="M977.961 45.4H1066.99V46.6H977.961V45.4Z" fill="#FF6060"/>
<path d="M1143.91 38.8H1134.98L1133.14 43H1130.66L1138.27 26.2H1140.65L1148.28 43H1145.76L1143.91 38.8ZM1143.07 36.88L1139.45 28.648L1135.82 36.88H1143.07ZM1163.78 26.2C1165.96 26.2 1167.67 26.72 1168.92 27.76C1170.17 28.8 1170.79 30.232 1170.79 32.056C1170.79 33.88 1170.17 35.312 1168.92 36.352C1167.67 37.392 1165.96 37.912 1163.78 37.912H1159.63V43H1157.23V26.2H1163.78ZM1163.71 35.824C1165.23 35.824 1166.39 35.504 1167.19 34.864C1167.99 34.208 1168.39 33.272 1168.39 32.056C1168.39 30.84 1167.99 29.912 1167.19 29.272C1166.39 28.616 1165.23 28.288 1163.71 28.288H1159.63V35.824H1163.71ZM1175.98 32.416C1176.38 31.68 1176.97 31.12 1177.75 30.736C1178.54 30.352 1179.49 30.16 1180.61 30.16V32.392C1180.48 32.376 1180.31 32.368 1180.08 32.368C1178.83 32.368 1177.85 32.744 1177.13 33.496C1176.43 34.232 1176.07 35.288 1176.07 36.664V43H1173.77V30.28H1175.98V32.416ZM1188.78 43.144C1187.52 43.144 1186.38 42.864 1185.37 42.304C1184.36 41.744 1183.57 40.976 1183 40C1182.44 39.008 1182.16 37.888 1182.16 36.64C1182.16 35.392 1182.44 34.28 1183 33.304C1183.57 32.312 1184.36 31.544 1185.37 31C1186.38 30.44 1187.52 30.16 1188.78 30.16C1190.04 30.16 1191.17 30.44 1192.16 31C1193.17 31.544 1193.96 32.312 1194.52 33.304C1195.09 34.28 1195.38 35.392 1195.38 36.64C1195.38 37.888 1195.09 39.008 1194.52 40C1193.96 40.976 1193.17 41.744 1192.16 42.304C1191.17 42.864 1190.04 43.144 1188.78 43.144ZM1188.78 41.128C1189.6 41.128 1190.32 40.944 1190.96 40.576C1191.62 40.192 1192.13 39.664 1192.5 38.992C1192.87 38.304 1193.05 37.52 1193.05 36.64C1193.05 35.76 1192.87 34.984 1192.5 34.312C1192.13 33.624 1191.62 33.096 1190.96 32.728C1190.32 32.36 1189.6 32.176 1188.78 32.176C1187.96 32.176 1187.23 32.36 1186.57 32.728C1185.93 33.096 1185.42 33.624 1185.04 34.312C1184.67 34.984 1184.48 35.76 1184.48 36.64C1184.48 37.52 1184.67 38.304 1185.04 38.992C1185.42 39.664 1185.93 40.192 1186.57 40.576C1187.23 40.944 1187.96 41.128 1188.78 41.128ZM1205.31 30.16C1206.54 30.16 1207.65 30.432 1208.62 30.976C1209.6 31.52 1210.36 32.28 1210.9 33.256C1211.46 34.232 1211.74 35.36 1211.74 36.64C1211.74 37.92 1211.46 39.056 1210.9 40.048C1210.36 41.024 1209.6 41.784 1208.62 42.328C1207.65 42.872 1206.54 43.144 1205.31 43.144C1204.4 43.144 1203.56 42.968 1202.79 42.616C1202.04 42.264 1201.4 41.752 1200.87 41.08V47.656H1198.57V30.28H1200.77V32.296C1201.29 31.592 1201.93 31.064 1202.72 30.712C1203.5 30.344 1204.37 30.16 1205.31 30.16ZM1205.12 41.128C1205.93 41.128 1206.66 40.944 1207.3 40.576C1207.96 40.192 1208.47 39.664 1208.84 38.992C1209.22 38.304 1209.41 37.52 1209.41 36.64C1209.41 35.76 1209.22 34.984 1208.84 34.312C1208.47 33.624 1207.96 33.096 1207.3 32.728C1206.66 32.36 1205.93 32.176 1205.12 32.176C1204.32 32.176 1203.59 32.368 1202.93 32.752C1202.29 33.12 1201.78 33.64 1201.4 34.312C1201.03 34.984 1200.85 35.76 1200.85 36.64C1200.85 37.52 1201.03 38.304 1201.4 38.992C1201.77 39.664 1202.28 40.192 1202.93 40.576C1203.59 40.944 1204.32 41.128 1205.12 41.128ZM1220.37 43.144C1219.11 43.144 1217.97 42.864 1216.97 42.304C1215.96 41.744 1215.17 40.976 1214.59 40C1214.03 39.008 1213.75 37.888 1213.75 36.64C1213.75 35.392 1214.03 34.28 1214.59 33.304C1215.17 32.312 1215.96 31.544 1216.97 31C1217.97 30.44 1219.11 30.16 1220.37 30.16C1221.64 30.16 1222.77 30.44 1223.76 31C1224.77 31.544 1225.55 32.312 1226.11 33.304C1226.69 34.28 1226.97 35.392 1226.97 36.64C1226.97 37.888 1226.69 39.008 1226.11 40C1225.55 40.976 1224.77 41.744 1223.76 42.304C1222.77 42.864 1221.64 43.144 1220.37 43.144ZM1220.37 41.128C1221.19 41.128 1221.92 40.944 1222.56 40.576C1223.21 40.192 1223.73 39.664 1224.09 38.992C1224.46 38.304 1224.65 37.52 1224.65 36.64C1224.65 35.76 1224.46 34.984 1224.09 34.312C1223.73 33.624 1223.21 33.096 1222.56 32.728C1221.92 32.36 1221.19 32.176 1220.37 32.176C1219.56 32.176 1218.82 32.36 1218.17 32.728C1217.53 33.096 1217.01 33.624 1216.63 34.312C1216.26 34.984 1216.08 35.76 1216.08 36.64C1216.08 37.52 1216.26 38.304 1216.63 38.992C1217.01 39.664 1217.53 40.192 1218.17 40.576C1218.82 40.944 1219.56 41.128 1220.37 41.128ZM1233.81 43.144C1232.77 43.144 1231.77 43.008 1230.81 42.736C1229.85 42.448 1229.1 42.088 1228.55 41.656L1229.51 39.832C1230.07 40.232 1230.75 40.552 1231.55 40.792C1232.35 41.032 1233.16 41.152 1233.98 41.152C1235.99 41.152 1237 40.576 1237 39.424C1237 39.04 1236.86 38.736 1236.59 38.512C1236.32 38.288 1235.98 38.128 1235.56 38.032C1235.16 37.92 1234.58 37.8 1233.83 37.672C1232.81 37.512 1231.97 37.328 1231.31 37.12C1230.67 36.912 1230.12 36.56 1229.66 36.064C1229.19 35.568 1228.96 34.872 1228.96 33.976C1228.96 32.824 1229.44 31.904 1230.4 31.216C1231.36 30.512 1232.65 30.16 1234.26 30.16C1235.11 30.16 1235.96 30.264 1236.81 30.472C1237.66 30.68 1238.35 30.96 1238.9 31.312L1237.91 33.136C1236.87 32.464 1235.65 32.128 1234.24 32.128C1233.26 32.128 1232.52 32.288 1232.01 32.608C1231.5 32.928 1231.24 33.352 1231.24 33.88C1231.24 34.296 1231.38 34.624 1231.67 34.864C1231.96 35.104 1232.31 35.28 1232.73 35.392C1233.16 35.504 1233.76 35.632 1234.53 35.776C1235.55 35.952 1236.38 36.144 1237 36.352C1237.64 36.544 1238.18 36.88 1238.63 37.36C1239.08 37.84 1239.3 38.512 1239.3 39.376C1239.3 40.528 1238.81 41.448 1237.82 42.136C1236.84 42.808 1235.5 43.144 1233.81 43.144Z" fill="#FF6060"/>
</svg>
